<?xml version="1.0" encoding="UTF-8" standalone="no"?>
<!-- Created with Inkscape (http://www.inkscape.org/) -->

<svg
   xmlns:dc="http://purl.org/dc/elements/1.1/"
   xmlns:cc="http://creativecommons.org/ns#"
   xmlns:rdf="http://www.w3.org/1999/02/22-rdf-syntax-ns#"
   xmlns:svg="http://www.w3.org/2000/svg"
   xmlns="http://www.w3.org/2000/svg"
   xmlns:sodipodi="http://sodipodi.sourceforge.net/DTD/sodipodi-0.dtd"
   xmlns:inkscape="http://www.inkscape.org/namespaces/inkscape"
   id="svg2"
   version="1.1"
   inkscape:version="0.48.3.1 r9886"
   width="238"
   height="283"
   sodipodi:docname="questionMark.png">
  <metadata
     id="metadata8">
    <rdf:RDF>
      <cc:Work
         rdf:about="">
        <dc:format>image/svg+xml</dc:format>
        <dc:type
           rdf:resource="http://purl.org/dc/dcmitype/StillImage" />
        <dc:title></dc:title>
      </cc:Work>
    </rdf:RDF>
  </metadata>
  <defs
     id="defs6" />
  <sodipodi:namedview
     pagecolor="#ffffff"
     bordercolor="#666666"
     borderopacity="1"
     objecttolerance="10"
     gridtolerance="10"
     guidetolerance="10"
     inkscape:pageopacity="0"
     inkscape:pageshadow="2"
     inkscape:window-width="1366"
     inkscape:window-height="692"
     id="namedview4"
     showgrid="false"
     inkscape:zoom="0.83392226"
     inkscape:cx="119"
     inkscape:cy="141.5"
     inkscape:window-x="0"
     inkscape:window-y="24"
     inkscape:window-maximized="1"
     inkscape:current-layer="svg2" />
  <path
     style="fill:#ff0000;fill-opacity:1;stroke-width:1.70000005;stroke-miterlimit:4;stroke-dasharray:6.8, 6.8;stroke-dashoffset:0"
     d="m 82.322881,247.49237 c -0.79144,-0.79144 -1.438983,-3.78444 -1.438983,-6.65111 0,-4.53447 0.46674,-5.47772 3.589876,-7.25487 1.974432,-1.12351 3.593288,-2.46204 3.597457,-2.97452 0.01146,-1.40802 21.343229,-22.4517 22.759069,-22.4517 0.67736,0 1.23156,-0.53324 1.23156,-1.18498 0,-0.65173 4.04714,-5.19291 8.99365,-10.09148 7.85854,-7.78242 8.99364,-9.44831 8.99364,-13.19925 0,-3.94554 1.45256,-5.72377 17.95922,-21.98584 9.87758,-9.73122 18.78128,-18.38891 19.78602,-19.23933 1.06267,-0.89945 1.8268,-3.51251 1.8268,-6.24703 0,-3.58318 0.7811,-5.42508 3.28541,-7.7472 1.80698,-1.67553 3.60903,-3.04642 4.00456,-3.04642 0.39551,0 1.33379,-1.34904 2.08506,-2.99788 0.75126,-1.64883 1.95565,-2.99788 2.67644,-2.99788 2.7624,0 4.73666,-3.60512 4.73666,-8.64944 0,-4.44781 0.49799,-5.51747 3.35421,-7.20468 1.84481,-1.08975 4.06257,-3.30497 4.92835,-4.9227 0.86579,-1.61772 2.86391,-3.52897 4.44028,-4.24722 2.65645,-1.21035 2.86615,-1.97328 2.86615,-10.42758 0,-8.917577 0.0939,-9.204823 4.19703,-12.837452 l 4.19703,-3.715772 0,-16.727718 0,-16.727719 -5.92831,-5.835537 -5.92831,-5.835537 -16.80887,0 c -15.74739,0 -16.96328,0.165733 -19.2539,2.624419 -1.34476,1.443431 -2.44501,3.062287 -2.44501,3.597458 0,0.535172 -4.26461,0.973039 -9.47691,0.973039 l -9.47691,0 -3.62507,4.496822 -3.62507,4.496822 -4.08405,-3.937003 c -4.50457,-4.342377 -6.7721,-4.240923 -9.83931,0.440236 -1.48184,2.261576 -2.94715,2.89719 -6.67901,2.89719 -3.4383,0 -5.36667,0.721543 -6.86749,2.569628 -1.14773,1.413296 -3.09729,3.436866 -4.33236,4.496823 -1.23507,1.059957 -2.853926,2.640394 -3.597457,3.512085 -4.673528,5.479079 -5.81937,6.2096 -9.739932,6.2096 -3.647877,0 -5.512761,1.306943 -14.38983,10.084644 l -10.198808,10.084643 0,8.669809 c 0,10.86845 1.043235,11.84175 12.748563,11.89395 8.381523,0.0374 8.615173,-0.0453 11.752764,-4.15889 l 3.201235,-4.19704 12.977055,0 12.97705,0 3.62995,-4.24963 3.62995,-4.249642 9.41354,0.352392 9.41354,0.352391 0.36583,6.392889 c 0.51018,8.91536 -0.55587,9.79567 -11.86242,9.79567 -8.53207,0 -9.53597,0.25022 -10.82506,2.69809 -2.13063,4.04589 -3.29999,4.45849 -12.69254,4.47846 -8.44843,0.018 -8.70121,0.10801 -11.834063,4.2154 l -3.201233,4.19703 -13.605737,0 c -12.884377,0 -13.681937,-0.14305 -15.042954,-2.69809 -2.106477,-3.9545 -4.759857,-5.61486 -9.041674,-5.65784 -7.700613,-0.0773 -7.592779,0.19074 -7.592779,-18.87296 l 0,-17.379086 10.141387,-10.073129 c 9.313455,-9.250768 10.53164,-10.073129 14.921612,-10.073129 4.040141,0 5.109372,-0.557203 6.906204,-3.598997 1.169288,-1.97945 2.990997,-3.873543 4.048238,-4.209099 1.057242,-0.335556 3.115116,-2.223528 4.573053,-4.195494 2.13646,-2.889716 3.537136,-3.585393 7.218829,-3.585393 3.693707,0 5.299037,-0.803318 8.387247,-4.197034 2.93196,-3.222 4.76471,-4.197034 7.8891,-4.197034 5.20485,0 7.86348,-1.033966 7.86348,-3.05818 0,-3.341302 5.14252,-5.335886 13.75729,-5.335922 8.19356,-3.5e-5 8.51981,-0.116318 11.77583,-4.197034 3.30512,-4.142266 3.46932,-4.197098 12.5911,-4.204581 9.00732,-0.0074 9.29424,-0.09885 11.28505,-3.597458 l 2.04275,-3.589875 17.64159,0 17.6416,0 5.79765,6.207889 c 4.7993,5.138891 5.79765,6.983278 5.79765,10.710718 0,3.634459 0.69377,4.996835 3.59746,7.064443 l 3.59746,2.561616 0,25.618469 0,25.61847 -3.59746,2.561615 c -2.98259,2.123794 -3.59746,3.391075 -3.59746,7.414625 0,4.01462 -0.72508,5.51716 -4.19703,8.69735 -3.35812,3.07591 -4.19704,4.7376 -4.19704,8.31327 0,3.2923 -0.83541,5.24317 -3.17298,7.40956 -1.74515,1.61734 -3.63381,2.94062 -4.19703,2.94062 -0.56323,0 -1.0256,2.56319 -1.02751,5.69597 -0.002,4.97007 -0.45411,5.99792 -3.53972,8.06525 -1.94495,1.3031 -4.16116,3.53687 -4.9249,4.96394 -0.76376,1.42708 -2.6784,3.18232 -4.25477,3.90057 -2.35496,1.073 -2.86614,2.19757 -2.86614,6.30543 0,4.76699 -0.58564,5.57255 -12.5911,17.31897 -11.70718,11.45459 -12.5911,12.64596 -12.5911,16.97067 0,5.95314 -1.66756,7.5292 -7.96633,7.5292 -5.98332,0 -8.82181,2.9895 -8.82181,9.29114 0,3.56206 -2.60061,6.55394 -25.82635,29.712 -24.468598,24.39729 -26.06358,25.7511 -30.338563,25.7511 -2.481711,0 -5.159745,-0.64755 -5.951186,-1.43899 z"
     id="path2987"
     inkscape:connector-curvature="0" />
  <path
     style="fill:#ff0000;fill-opacity:1;stroke-width:1.70000005;stroke-miterlimit:4;stroke-dasharray:6.8, 6.8;stroke-dashoffset:0"
     d="m 119.23983,98.540204 c 0,-2.752558 3.72109,-8.748154 6.27745,-10.114533 1.67798,-0.896877 3.63852,-2.920447 4.35676,-4.496822 2.5654,-5.630434 8.44018,-2.151223 8.51409,5.042289 0.0499,4.859228 -2.89722,7.312128 -9.55508,7.952636 -2.9679,0.285522 -6.34052,0.938461 -7.4947,1.450975 -1.15419,0.512513 -2.09852,0.586968 -2.09852,0.165455 z"
     id="path2989"
     inkscape:connector-curvature="0" />
  <path
     sodipodi:type="arc"
     style="fill:#ff0000;fill-opacity:1;stroke-width:1.70000005;stroke-miterlimit:4;stroke-dasharray:6.8, 6.8;stroke-dashoffset:0"
     id="path2991"
     sodipodi:cx="91.735168"
     sodipodi:cy="277.60382"
     sodipodi:rx="13.790255"
     sodipodi:ry="11.391949"
     d="m 105.52542,277.60382 a 13.790255,11.391949 0 1 1 -27.580506,0 13.790255,11.391949 0 1 1 27.580506,0 z"
     transform="translate(-7.1949153,-7.1949153)" />
</svg>
